<svg width="500" height="500" viewBox="0 0 500 500" fill="none" xmlns="http://www.w3.org/2000/svg">
<path d="M250 50L303.553 103.553L397.553 103.553L344 157.106L344 251.106L397.553 304.66L303.553 304.66L250 358.213L196.447 304.66L102.447 304.66L156 251.106L156 157.106L102.447 103.553L196.447 103.553L250 50Z" stroke="#D97B78" stroke-width="20"/>
<path d="M250 100L285.355 135.355L345.355 135.355L310 170.711L310 230.711L345.355 266.066L285.355 266.066L250 301.421L214.645 266.066L154.645 266.066L190 230.711L190 170.711L154.645 135.355L214.645 135.355L250 100Z" stroke="#E2C76F" stroke-width="15"/>
</svg> 